<svg xmlns="http://www.w3.org/2000/svg" width="12.5" height="12.5" viewBox="0 0 25 25">
  <defs>
    <style>
      .cls-1 {
        fill: #fff;
        fill-rule: evenodd;
      }
    </style>
  </defs>
  <path id="_" data-name="?" class="cls-1" d="M13.113,15.212V14.469a2.077,2.077,0,0,1,.316-1.2,7.274,7.274,0,0,1,1.5-1.337A8.823,8.823,0,0,0,17.287,9.7a4.349,4.349,0,0,0,.619-2.353A4,4,0,0,0,16.4,4.08a6.231,6.231,0,0,0-4.056-1.226A11.8,11.8,0,0,0,6.488,4.4l1.35,2.712A9.529,9.529,0,0,1,12.073,5.9a2.836,2.836,0,0,1,1.659.421,1.408,1.408,0,0,1,.594,1.226,2.188,2.188,0,0,1-.415,1.3A7.772,7.772,0,0,1,12.2,10.358a6.653,6.653,0,0,0-1.857,1.87A4.063,4.063,0,0,0,9.832,14.3v0.916h3.282ZM10.005,21a2.221,2.221,0,0,0,1.61.551,2.156,2.156,0,0,0,1.585-.563,2.07,2.07,0,0,0,.57-1.542,2.071,2.071,0,0,0-.563-1.56,2.2,2.2,0,0,0-1.591-.545,2.26,2.26,0,0,0-1.622.533,2.076,2.076,0,0,0-.557,1.573A2.061,2.061,0,0,0,10.005,21Z" transform="translate(0.297 0.297)"/>
</svg>
